<svg xmlns="http://www.w3.org/2000/svg" version="1.1" xmlns:xlink="http://www.w3.org/1999/xlink" xmlns:svgjs="http://svgjs.com/svgjs" width="512" height="512" x="0" y="0" viewBox="0 0 48.001 48" style="enable-background:new 0 0 512 512" xml:space="preserve" class=""><g><g id="Layer_2" data-name="Layer 2"><g id="Layer_1-2" data-name="Layer 1"><g id="app_development" data-name="app development"><path d="m3.7 0h19.6a3.7 3.7 0 0 1 3.7 3.7v40.6a3.7 3.7 0 0 1 -3.7 3.7h-19.6a3.7 3.7 0 0 1 -3.7-3.7v-40.6a3.7 3.7 0 0 1 3.7-3.7z" fill="#bd10c3" data-original="#556dd3" class=""></path><path d="m0 7.5h43.501v33h-43.501z" fill="#bd80e1" data-original="#8ddef1" class=""></path><path d="m9.75 3h7.5v1.5h-7.5z" fill="#6f2582" data-original="#769aff" class=""></path><path d="m6.835 43.589a.943.943 0 0 0 0 1.321.947.947 0 0 0 .667.278.929.929 0 0 0 .66-.278.944.944 0 0 0 .278-.66.938.938 0 0 0 -1.6-.661z" fill="#6f2582" data-original="#769aff" class=""></path><circle cx="13.502" cy="44.25" fill="#6f2582" r=".937" data-original="#769aff" class=""></circle><path d="m20.162 43.582a.98.98 0 0 0 -1.327 0 .966.966 0 0 0 -.27.668.936.936 0 0 0 .27.66.942.942 0 0 0 1.605-.66.974.974 0 0 0 -.278-.668z" fill="#6f2582" data-original="#769aff" class=""></path><circle cx="19.818" cy="3.75" fill="#bd80e1" r="1.125" data-original="#8ddef1" class=""></circle><path d="m45.951 4.663a5.77 5.77 0 0 1 -4.9 0l-2.051 3.903a10.1 10.1 0 0 0 9 0z" fill="#f8b55b" data-original="#f8b55b" class=""></path><path d="m45.951 4.663-2.451-4.663-2.45 4.663a5.77 5.77 0 0 0 4.901 0z" fill="#6f2582" data-original="#769aff" class=""></path><path d="m39 42.31v4.631a10.094 10.094 0 0 0 9 0v-4.631a10.09 10.09 0 0 1 -9 0z" fill="#f8b55b" data-original="#f8b55b" class=""></path><path d="m39 8.566v33.744a10.311 10.311 0 0 0 4.5 1.059v-33.745a10.324 10.324 0 0 1 -4.5-1.058z" fill="#6f2582" data-original="#769aff" class=""></path><path d="m48 8.566a10.324 10.324 0 0 1 -4.5 1.058v33.745a10.311 10.311 0 0 0 4.5-1.059z" fill="#bd10c3" data-original="#556dd3" class=""></path><path d="m4.811 12h1.819v1.5h-1.819z" fill="#bd10c3" data-original="#556dd3" class=""></path><path d="m4.811 16.5h1.819v1.5h-1.819z" fill="#bd10c3" data-original="#556dd3" class=""></path><path d="m4.811 25.5h1.819v1.5h-1.819z" fill="#bd10c3" data-original="#556dd3" class=""></path><path d="m4.811 34.5h1.819v1.5h-1.819z" fill="#bd10c3" data-original="#556dd3" class=""></path><path d="m14.29 30h6.268v1.5h-6.268z" fill="#f8b55b" data-original="#f8b55b" class=""></path><path d="m16.746 21h7.407v1.5h-7.407z" fill="#f8b55b" data-original="#f8b55b" class=""></path><path d="m10.384 12h6.164v1.5h-6.164z" fill="#f8b55b" data-original="#f8b55b" class=""></path><path d="m28.513 34.5h4.532v1.5h-4.532z" fill="#f8b55b" data-original="#f8b55b" class=""></path><g fill="#769aff"><path d="m4.811 30h6.307v1.5h-6.307z" fill="#6f2582" data-original="#769aff" class=""></path><path d="m19.471 12h5.519v1.5h-5.519z" fill="#6f2582" data-original="#769aff" class=""></path><path d="m10.384 16.5h8.624v1.5h-8.624z" fill="#6f2582" data-original="#769aff" class=""></path><path d="m21.931 16.5h5.899v1.5h-5.899z" fill="#6f2582" data-original="#769aff" class=""></path><path d="m10.384 25.5h8.823v1.5h-8.823z" fill="#6f2582" data-original="#769aff" class=""></path><path d="m22.131 25.5h5.194v1.5h-5.194z" fill="#6f2582" data-original="#769aff" class=""></path><path d="m30.248 25.5h2.796v1.5h-2.796z" fill="#6f2582" data-original="#769aff" class=""></path><path d="m4.811 21h9.012v1.5h-9.012z" fill="#6f2582" data-original="#769aff" class=""></path><path d="m27.076 21h3.986v1.5h-3.986z" fill="#6f2582" data-original="#769aff" class=""></path><path d="m10.384 34.5h4.968v1.5h-4.968z" fill="#6f2582" data-original="#769aff" class=""></path><path d="m18.275 34.5h7.048v1.5h-7.048z" fill="#6f2582" data-original="#769aff" class=""></path><path d="m27.914 12h5.131v1.5h-5.131z" fill="#6f2582" data-original="#769aff" class=""></path></g></g></g></g></g></svg>