<svg xmlns="http://www.w3.org/2000/svg" version="1.1" xmlns:xlink="http://www.w3.org/1999/xlink" xmlns:svgjs="http://svgjs.com/svgjs" width="512" height="512" x="0" y="0" viewBox="0 0 64 64" style="enable-background:new 0 0 512 512" xml:space="preserve" class=""><g transform="matrix(1.14,0,0,1.14,-4.479999999999997,-4.479999999999997)"><g><path d="m38 56h-12l1.33-8h9.34z" fill="#47383c" data-original="#074f77" class=""></path></g><g><path d="m37.17 51h-10.33l.49-3h9.34z" fill="#701a75" data-original="#00325a" class=""></path></g><g><path d="m37 50h-10l.33-2h9.34z" fill="#701a75" data-original="#00325a" class=""></path></g><g><path d="m60 14v34c0 1.1-.9 2-2 2h-52c-1.1 0-2-.9-2-2v-34c0-1.1.9-2 2-2h52c1.1 0 2 .9 2 2z" fill="#9c0fa1" data-original="#01a0c8" class=""></path></g><g><path d="m53 49h4c.552 0 1-.448 1-1 0-.552-.448-1-1-1h-4c-.552 0-1 .448-1 1 0 .552.448 1 1 1z" fill="#47383c" data-original="#0082aa" class=""></path></g><g><circle cx="49" cy="48" fill="#47383c" r="1" data-original="#0082aa" class=""></circle></g><g><path d="m58 15v28c0 .55-.45 1-1 1h-50c-.55 0-1-.45-1-1v-28c0-.55.45-1 1-1h50c.55 0 1 .45 1 1z" fill="#bd80e1" data-original="#fab400" class=""></path></g><g><path d="m57 14c-9.971 0-40.126 0-50 0-.55 0-1 .45-1 1v1c0-.55.45-1 1-1h3v24c0 .55.45 1 1 1h42c.55 0 1-.45 1-1v-24h3c.55 0 1 .45 1 1v-1c0-.55-.45-1-1-1z" fill="#7e3b87" data-original="#dc9600" class=""></path></g><g><path d="m54 5v5h-44v-5c0-.55.45-1 1-1h42c.55 0 1 .45 1 1z" fill="#701a75" data-original="#00325a" class=""></path></g><g><path d="m43 60h-22c-.552 0-1-.448-1-1v-1c0-1.105.895-2 2-2h20c1.105 0 2 .895 2 2v1c0 .552-.448 1-1 1z" fill="#9c0fa1" data-original="#01a0c8" class=""></path></g><g><path d="m53 48h4c.552 0 1-.448 1-1 0-.552-.448-1-1-1h-4c-.552 0-1 .448-1 1 0 .552.448 1 1 1z" fill="#9059b1" data-original="#f0f0f0" class=""></path></g><g><circle cx="49" cy="47" fill="#9059b1" r="1" data-original="#f0f0f0" class=""></circle></g><g><g><path d="m54 10v28c0 .55-.45 1-1 1h-42c-.55 0-1-.45-1-1v-28z" fill="#9059b1" data-original="#f0f0f0" class=""></path></g><g><path d="m38 15c-5.52 0-10 1.34-10 3v16c0 1.66 4.48 3 10 3s10-1.34 10-3v-16c0-1.66-4.48-3-10-3z" fill="#bd96d5" data-original="#d2d2d2" class=""></path></g><g><circle cx="51" cy="7" fill="#793381" r="1" data-original="#c80a50" class=""></circle></g><g><circle cx="47" cy="7" fill="#9c0fa1" r="1" data-original="#01a0c8" class=""></circle></g><g><circle cx="43" cy="7" fill="#bd80e1" r="1" data-original="#fab400" class=""></circle></g></g><g><path d="m10 10h12v29h-12z" fill="#bd96d5" data-original="#d2d2d2" class=""></path></g><g><path d="m28 8h-15c-.552 0-1-.448-1-1s.448-1 1-1h15c.552 0 1 .448 1 1s-.448 1-1 1z" fill="#9059b1" data-original="#f0f0f0" class=""></path></g><g><path d="m38 14c-5.52 0-10 1.34-10 3v16c0 1.66 4.48 3 10 3s10-1.34 10-3v-16c0-1.66-4.48-3-10-3z" fill="#793381" data-original="#c80a50" class=""></path></g><g><path d="m48 25v4c0 1.66-4.48 3-10 3s-10-1.34-10-3v-4c0 1.66 4.48 3 10 3s10-1.34 10-3z" fill="#c87ad3" data-original="#a00028" class=""></path></g><g><path d="m48 17v4c0 1.66-4.48 3-10 3s-10-1.34-10-3v-4c0 1.66 4.48 3 10 3s10-1.34 10-3z" fill="#c87ad3" data-original="#a00028" class=""></path></g><g><path d="m19 15h-6c-.552 0-1-.448-1-1 0-.552.448-1 1-1h6c.552 0 1 .448 1 1 0 .552-.448 1-1 1z" fill="#701a75" data-original="#00325a" class=""></path></g><g><path d="m19 19h-6c-.552 0-1-.448-1-1 0-.552.448-1 1-1h6c.552 0 1 .448 1 1 0 .552-.448 1-1 1z" fill="#701a75" data-original="#00325a" class=""></path></g><g><path d="m19 23h-6c-.552 0-1-.448-1-1 0-.552.448-1 1-1h6c.552 0 1 .448 1 1 0 .552-.448 1-1 1z" fill="#701a75" data-original="#00325a" class=""></path></g><g><path d="m19 27h-6c-.552 0-1-.448-1-1 0-.552.448-1 1-1h6c.552 0 1 .448 1 1 0 .552-.448 1-1 1z" fill="#701a75" data-original="#00325a" class=""></path></g><g><path d="m19 31h-6c-.552 0-1-.448-1-1 0-.552.448-1 1-1h6c.552 0 1 .448 1 1 0 .552-.448 1-1 1z" fill="#701a75" data-original="#00325a" class=""></path></g><g><path d="m19 35h-6c-.552 0-1-.448-1-1 0-.552.448-1 1-1h6c.552 0 1 .448 1 1 0 .552-.448 1-1 1z" fill="#701a75" data-original="#00325a" class=""></path></g></g></svg>