<svg xmlns="http://www.w3.org/2000/svg" version="1.1" xmlns:xlink="http://www.w3.org/1999/xlink" xmlns:svgjs="http://svgjs.com/svgjs" width="512" height="512" x="0" y="0" viewBox="0 0 496 496" style="enable-background:new 0 0 512 512" xml:space="preserve" class=""><g transform="matrix(1,0,0,1,2.5579538487363607e-13,5.968558980384842e-13)"><g><g><path d="m426.925 157.822v215.483c0 21.851-17.718 39.581-39.581 39.581h-347.763c-21.863-.001-39.581-17.73-39.581-39.582v-215.482c0-20.943 16.977-37.908 37.908-37.908h351.109c20.931 0 37.908 16.964 37.908 37.908z" fill="#cfcfcf" data-original="#d0e7f2" class=""></path><path d="m244.851 119.914h48.095v292.972h-48.095z" fill="#bbbbbb" data-original="#b7d9eb" class=""></path></g><path d="m251.445 309.24h-53.453c-10.466 0-18.951-8.485-18.951-18.951v-68.537c0-10.466 8.485-18.951 18.951-18.951h53.453c10.466 0 18.951 8.485 18.951 18.951v68.537c0 10.467-8.485 18.951-18.951 18.951z" fill="#bd10c3" data-original="#02c7dd" class=""></path><path d="m251.445 202.801h-25.198c10.466 0 18.951 8.485 18.951 18.951v68.537c0 10.466-8.485 18.951-18.951 18.951h25.198c10.466 0 18.951-8.485 18.951-18.951v-68.537c0-10.466-8.485-18.951-18.951-18.951z" fill="#6f2582" data-original="#07b2cd" class=""></path><path d="m426.925 141.023v17.407h-426.925v-17.407c0-20.943 16.977-37.908 37.908-37.908h351.109c20.931 0 37.908 16.965 37.908 37.908z" fill="#6f2582" data-original="#07b2cd" class=""></path><path d="m244.851 103.115h48.095v55.315h-48.095z" fill="#6b21a8" data-original="#0199b1" class=""></path><g><path d="m496 72.233v367.269c0 21.851-17.718 39.581-39.581 39.581h-147.442c-21.863 0-39.581-17.729-39.581-39.581v-367.269c0-20.943 16.977-37.908 37.908-37.908h150.788c20.931-.001 37.908 16.964 37.908 37.908z" fill="#bd80e1" data-original="#bd80e1" class=""></path><path d="m458.092 34.324h-23.854c20.932 0 37.908 16.965 37.908 37.908v367.269c0 21.851-17.718 39.581-39.581 39.581h23.854c21.863 0 39.581-17.729 39.581-39.581v-367.268c0-20.944-16.977-37.909-37.908-37.909z" fill="#af66da" data-original="#af66da" class=""></path></g><path d="m496 54.826v17.407h-226.604v-17.407c0-20.943 16.977-37.908 37.908-37.908h150.788c20.931 0 37.908 16.964 37.908 37.908z" fill="#7e22ce" data-original="#30dde5" class=""></path><path d="m458.092 16.918h-23.854c20.932 0 37.908 16.965 37.908 37.908v17.407h23.854v-17.407c0-20.944-16.977-37.908-37.908-37.908z" fill="#bd10c3" data-original="#02c7dd" class=""></path><path d="m122.803 309.24h-53.453c-10.466 0-18.951-8.485-18.951-18.951v-68.537c0-10.466 8.485-18.951 18.951-18.951h53.453c10.466 0 18.951 8.485 18.951 18.951v68.537c0 10.467-8.485 18.951-18.951 18.951z" fill="#bd10c3" data-original="#02c7dd" class=""></path><path d="m122.803 202.801h-25.198c10.466 0 18.951 8.485 18.951 18.951v68.537c0 10.466-8.484 18.951-18.951 18.951h25.198c10.466 0 18.951-8.485 18.951-18.951v-68.537c0-10.466-8.485-18.951-18.951-18.951z" fill="#6f2582" data-original="#07b2cd" class=""></path><g><g><path d="m121.754 354.887h-51.355c-4.143 0-7.5-3.358-7.5-7.5s3.357-7.5 7.5-7.5h51.354c4.143 0 7.5 3.358 7.5 7.5s-3.357 7.5-7.499 7.5z" fill="#edf5fa" data-original="#edf5fa" class=""></path></g><g><path d="m107.107 384.872h-19.99c-4.143 0-7.5-3.358-7.5-7.5s3.357-7.5 7.5-7.5h19.99c4.143 0 7.5 3.358 7.5 7.5s-3.357 7.5-7.5 7.5z" fill="#edf5fa" data-original="#edf5fa" class=""></path></g></g><g><g><path d="m257.9 347.388c0 4.14-3.36 7.5-7.5 7.5h-51.36c-4.14 0-7.5-3.36-7.5-7.5s3.36-7.5 7.5-7.5h51.36c4.14 0 7.5 3.36 7.5 7.5z" fill="#edf5fa" data-original="#edf5fa" class=""></path></g><path d="m257.9 347.388c0 4.14-3.36 7.5-7.5 7.5h-5.55v-15h5.55c4.14 0 7.5 3.36 7.5 7.5z" fill="#cfcfcf" data-original="#d0e7f2" class=""></path><g><path d="m235.749 384.872h-19.989c-4.143 0-7.5-3.358-7.5-7.5s3.357-7.5 7.5-7.5h19.989c4.143 0 7.5 3.358 7.5 7.5s-3.357 7.5-7.5 7.5z" fill="#edf5fa" data-original="#edf5fa" class=""></path></g></g><g><path d="m440.315 302.74h-112.779c-4.143 0-7.5-3.358-7.5-7.5s3.357-7.5 7.5-7.5h112.779c4.143 0 7.5 3.358 7.5 7.5s-3.357 7.5-7.5 7.5z" fill="#edf5fa" data-original="#edf5fa" class=""></path></g><g><path d="m404.481 333.725h-76.945c-4.143 0-7.5-3.358-7.5-7.5s3.357-7.5 7.5-7.5h76.945c4.143 0 7.5 3.358 7.5 7.5s-3.357 7.5-7.5 7.5z" fill="#edf5fa" data-original="#edf5fa" class=""></path></g><g><g><path d="m420.75 225.149c-1.919 0-3.839-.732-5.304-2.197-2.929-2.929-2.929-7.678 0-10.606l41.829-41.829-41.829-41.829c-2.929-2.929-2.929-7.678 0-10.606 2.93-2.929 7.678-2.929 10.607 0l47.132 47.132c2.929 2.929 2.929 7.678 0 10.606l-47.132 47.132c-1.464 1.464-3.384 2.197-5.303 2.197z" fill="#cfcfcf" data-original="#00f2a6" class=""></path></g><g><path d="m348.915 225.149c-1.92 0-3.839-.732-5.304-2.197l-47.131-47.132c-2.929-2.929-2.929-7.678 0-10.606l47.131-47.132c2.93-2.929 7.678-2.929 10.607 0s2.929 7.678 0 10.606l-41.828 41.829 41.828 41.829c2.929 2.929 2.929 7.678 0 10.606-1.464 1.464-3.384 2.197-5.303 2.197z" fill="#cfcfcf" data-original="#00f2a6" class=""></path></g><g><path d="m371.003 209.947c-1.046 0-2.108-.22-3.122-.685-3.765-1.727-5.417-6.179-3.69-9.944l29.904-65.199c1.727-3.764 6.176-5.418 9.944-3.69 3.765 1.727 5.417 6.179 3.69 9.944l-29.904 65.199c-1.262 2.752-3.98 4.375-6.822 4.375z" fill="#edf5fa" data-original="#edf5fa" class=""></path></g></g><g><path d="m252.35 131.368c0 4.15-3.36 7.5-7.5 7.5h-35.72c-4.14 0-7.5-3.35-7.5-7.5 0-4.14 3.36-7.5 7.5-7.5h35.72c4.14 0 7.5 3.36 7.5 7.5z" fill="#7e22ce" data-original="#30dde5" class=""></path></g><path d="m252.35 131.368c0 4.15-3.36 7.5-7.5 7.5v-15c4.14 0 7.5 3.36 7.5 7.5z" fill="#bd10c3" data-original="#02c7dd" class=""></path><g><path d="m355.514 52.673h-35.719c-4.143 0-7.5-3.358-7.5-7.5s3.357-7.5 7.5-7.5h35.719c4.143 0 7.5 3.358 7.5 7.5s-3.358 7.5-7.5 7.5z" fill="#bd10c3" data-original="#02c7dd" class=""></path></g><circle cx="455.434" cy="45.173" fill="#bd80e1" r="7.379" data-original="#bd80e1" class=""></circle><circle cx="440.316" cy="326.225" fill="#edf5fa" r="7.379" data-original="#edf5fa" class=""></circle><g><g><path d="m440.315 387.4h-112.779c-4.143 0-7.5-3.358-7.5-7.5s3.357-7.5 7.5-7.5h112.779c4.143 0 7.5 3.358 7.5 7.5s-3.357 7.5-7.5 7.5z" fill="#edf5fa" data-original="#edf5fa" class=""></path></g><g><path d="m351.082 416.385h-23.546c-4.143 0-7.5-3.358-7.5-7.5s3.357-7.5 7.5-7.5h23.546c4.143 0 7.5 3.358 7.5 7.5s-3.357 7.5-7.5 7.5z" fill="#edf5fa" data-original="#edf5fa" class=""></path></g><g><path d="m440.315 416.385h-19.168c-4.143 0-7.5-3.358-7.5-7.5s3.357-7.5 7.5-7.5h19.168c4.143 0 7.5 3.358 7.5 7.5s-3.357 7.5-7.5 7.5z" fill="#edf5fa" data-original="#edf5fa" class=""></path></g><g><path d="m409.313 446.37h-81.776c-4.143 0-7.5-3.358-7.5-7.5s3.357-7.5 7.5-7.5h81.776c4.143 0 7.5 3.358 7.5 7.5s-3.358 7.5-7.5 7.5z" fill="#edf5fa" data-original="#edf5fa" class=""></path></g><circle cx="386.472" cy="408.885" fill="#edf5fa" r="7.379" data-original="#edf5fa" class=""></circle></g></g></g></svg>